<svg width="24" height="24" viewBox="0 0 24 24" fill="none" xmlns="http://www.w3.org/2000/svg">
<g clip-path="url(#clip0_983_27268)">
<path d="M18.9435 7.32087C18.7279 5.70917 17.3309 4.43905 15.6748 4.19294C15.3954 4.15135 14.3368 4 11.8846 4H11.8663C9.41342 4 8.88718 4.15135 8.60778 4.19294C6.99784 4.43224 5.52761 5.5735 5.1709 7.20428C4.99932 8.0074 4.98101 8.89777 5.01289 9.71451C5.05832 10.8858 5.06714 12.055 5.17293 13.2215C5.24607 13.9963 5.37365 14.765 5.55473 15.5218C5.89381 16.9194 7.26639 18.0825 8.61117 18.5569C10.051 19.0518 11.5993 19.1339 13.0829 18.7942C13.2461 18.756 13.4075 18.7117 13.5671 18.6613C13.9272 18.546 14.3497 18.4172 14.6603 18.1908C14.6646 18.1877 14.6681 18.1836 14.6705 18.1788C14.673 18.1741 14.6744 18.1689 14.6745 18.1636V17.0332C14.6745 17.0282 14.6733 17.0233 14.6711 17.0189C14.6689 17.0144 14.6657 17.0105 14.6618 17.0074C14.6579 17.0044 14.6534 17.0022 14.6485 17.0011C14.6437 17 14.6387 17.0001 14.6339 17.0012C13.6833 17.2294 12.7093 17.3439 11.732 17.3421C10.0502 17.3421 9.59788 16.5396 9.46835 16.2056C9.36423 15.9169 9.29811 15.6157 9.27168 15.3097C9.27142 15.3046 9.27236 15.2995 9.27443 15.2948C9.27649 15.29 9.27965 15.2859 9.2836 15.2826C9.28758 15.2794 9.29225 15.2771 9.29724 15.276C9.30224 15.2749 9.30742 15.275 9.31238 15.2763C10.2471 15.503 11.2052 15.6175 12.1667 15.6172C12.398 15.6172 12.6285 15.6172 12.8598 15.6111C13.8268 15.5838 14.8461 15.534 15.7976 15.3472C15.8213 15.3425 15.845 15.3384 15.8654 15.3322C17.3661 15.0425 18.7943 14.133 18.9394 11.83C18.9449 11.7394 18.9584 10.8803 18.9584 10.7862C18.9591 10.4665 19.0608 8.51803 18.9435 7.32087ZM16.6337 13.0674H15.0557V9.18139C15.0557 8.36327 14.7166 7.94603 14.0269 7.94603C13.2687 7.94603 12.889 8.43962 12.889 9.41455V11.5416H11.3204V9.41455C11.3204 8.43962 10.94 7.94603 10.1818 7.94603C9.49616 7.94603 9.15369 8.36327 9.153 9.18139V13.0674H7.5763V9.06343C7.5763 8.24532 7.78405 7.59537 8.19953 7.1136C8.62812 6.63296 9.19031 6.38617 9.88814 6.38617C10.6958 6.38617 11.3061 6.6984 11.713 7.32222L12.1057 7.9849L12.499 7.32222C12.9059 6.6984 13.5163 6.38617 14.3226 6.38617C15.0197 6.38617 15.5819 6.63296 16.0119 7.1136C16.4273 7.59493 16.6351 8.24487 16.6351 9.06343L16.6337 13.0674Z" fill="white"/>
</g>
<defs>
<clipPath id="clip0_983_27268">
<rect width="14" height="15" fill="black" transform="translate(5 4)"/>
</clipPath>
</defs>
</svg>
